<svg width="25" height="24" viewBox="0 0 25 24" fill="none" xmlns="http://www.w3.org/2000/svg">
<path d="M9.53964 11.4426H10.2252L9.91358 10.6973L9.53964 11.4426Z" fill="black" fill-opacity="0.9"/>
<path d="M12.4688 2C6.42351 2 1.5 5.85093 1.5 10.6335C1.5 13.4907 3.24504 15.9752 5.92493 17.5901C6.48584 17.9006 5.98725 18.7702 5.98725 18.7702L3.80595 21.6273C3.74363 21.7516 3.80595 21.8758 3.86827 21.9379C3.93059 22 3.99292 22 4.11756 22C4.17989 22 4.24221 22 4.30453 21.9379C4.30453 21.9379 5.67564 21.6894 7.54533 20.7578C9.1034 20.0745 10.5368 19.1429 10.5368 19.1429C11.1601 19.205 11.8456 19.2671 12.5312 19.2671C18.5765 19.2671 23.5 15.4162 23.5 10.6335C23.4377 5.85093 18.5142 2 12.4688 2ZM6.9221 13.118C6.9221 13.5528 6.54816 13.9255 6.17422 13.9255C5.73796 13.9255 5.42635 13.5528 5.42635 13.1801C5.42635 13.1801 5.42635 13.1801 5.42635 13.118V9.45342H4.36686C3.99292 9.45342 3.6813 9.14286 3.6813 8.77019C3.6813 8.39752 3.99292 8.08696 4.36686 8.08696H7.79462C8.16856 8.08696 8.48017 8.39752 8.48017 8.77019C8.48017 9.14286 8.16856 9.45342 7.79462 9.45342H6.9221V13.118ZM20.5085 13.8634C20.2592 13.8634 20.0099 13.7391 19.8853 13.5528L18.5142 11.7516L18.2649 12V13.0559C18.2649 13.4907 17.8909 13.8012 17.517 13.8012C17.2054 13.8012 16.8938 13.6149 16.7691 13.3043C16.7068 13.6149 16.4575 13.8012 16.1459 13.8012H13.279C12.9674 13.8012 12.7181 13.6149 12.6558 13.3043C12.6558 13.3043 12.6558 13.3665 12.5935 13.3665C12.4688 13.6149 12.2195 13.7391 11.9079 13.7391C11.8456 13.7391 11.8456 13.7391 11.7833 13.7391C11.721 13.7391 11.721 13.7391 11.6586 13.7391C11.5963 13.7391 11.5963 13.7391 11.534 13.677C11.4717 13.677 11.4717 13.6149 11.4093 13.6149C11.347 13.6149 11.347 13.5528 11.347 13.5528C11.2847 13.4286 11.2224 13.3665 11.1601 13.2422L10.8484 12.7453H8.91643L8.66714 13.3043C8.60482 13.6149 8.2932 13.8634 7.91926 13.8634C7.483 13.8634 7.17139 13.4907 7.17139 13.118C7.17139 12.9938 7.17139 12.9317 7.23371 12.8075V12.7453L9.1034 8.64596C9.16572 8.27329 9.47734 8.02485 9.85128 8.02485C10.2252 8.02485 10.5368 8.27329 10.5992 8.64596L12.4688 12.6832V8.95652V8.89441C12.4688 8.45963 12.8428 8.14907 13.2167 8.14907C13.653 8.14907 13.9646 8.52174 13.9646 8.89441V8.95652V12.559H16.0212C16.2705 12.559 16.5198 12.6832 16.5822 12.9317V8.89441C16.5822 8.45963 16.9561 8.14907 17.33 8.14907C17.7663 8.14907 18.0779 8.52174 18.0779 8.89441V9.8882L19.5737 8.39752C19.6983 8.21118 19.9476 8.14907 20.1346 8.14907C20.5708 8.14907 20.8824 8.52174 20.8824 8.89441C20.8824 9.08075 20.8201 9.26708 20.6955 9.3913C20.6955 9.3913 20.6955 9.3913 20.6331 9.45342L19.449 10.6335L20.8824 12.6211C21.0071 12.7453 21.0694 12.9317 21.0694 13.118C21.2564 13.4907 20.8824 13.8634 20.5085 13.8634Z" fill="#232323"/>
</svg>
