<svg width="20" height="20" viewBox="0 0 20 20" fill="none" xmlns="http://www.w3.org/2000/svg">
<path d="M10.0003 9.99998H10.0045M14.167 9.99998H14.1712M5.83366 9.99998H5.83783M4.33366 5.83331H15.667C16.6004 5.83331 17.0671 5.83331 17.4236 6.01497C17.7372 6.17476 17.9922 6.42973 18.152 6.74333C18.3337 7.09985 18.3337 7.56656 18.3337 8.49998V11.5C18.3337 12.4334 18.3337 12.9001 18.152 13.2566C17.9922 13.5702 17.7372 13.8252 17.4236 13.985C17.0671 14.1666 16.6004 14.1666 15.667 14.1666H4.33366C3.40024 14.1666 2.93353 14.1666 2.57701 13.985C2.2634 13.8252 2.00844 13.5702 1.84865 13.2566C1.66699 12.9001 1.66699 12.4334 1.66699 11.5V8.49998C1.66699 7.56656 1.66699 7.09985 1.84865 6.74333C2.00844 6.42973 2.2634 6.17476 2.57701 6.01497C2.93353 5.83331 3.40024 5.83331 4.33366 5.83331ZM10.2087 9.99998C10.2087 10.115 10.1154 10.2083 10.0003 10.2083C9.88527 10.2083 9.79199 10.115 9.79199 9.99998C9.79199 9.88492 9.88527 9.79165 10.0003 9.79165C10.1154 9.79165 10.2087 9.88492 10.2087 9.99998ZM14.3753 9.99998C14.3753 10.115 14.2821 10.2083 14.167 10.2083C14.0519 10.2083 13.9587 10.115 13.9587 9.99998C13.9587 9.88492 14.0519 9.79165 14.167 9.79165C14.2821 9.79165 14.3753 9.88492 14.3753 9.99998ZM6.04199 9.99998C6.04199 10.115 5.94872 10.2083 5.83366 10.2083C5.7186 10.2083 5.62533 10.115 5.62533 9.99998C5.62533 9.88492 5.7186 9.79165 5.83366 9.79165C5.94872 9.79165 6.04199 9.88492 6.04199 9.99998Z" stroke="#CBB89B" stroke-width="1.5" stroke-linecap="round" stroke-linejoin="round"/>
</svg>
