<svg width="148" height="80" viewBox="0 0 148 80" fill="none" xmlns="http://www.w3.org/2000/svg">
<path fill-rule="evenodd" clip-rule="evenodd" d="M125.321 42.9743C136.55 42.9743 145.654 33.871 145.654 22.6415C145.654 11.412 136.55 2.30874 125.321 2.30874C114.091 2.30874 104.988 11.412 104.988 22.6415H103.918C103.918 10.821 113.5 1.23859 125.321 1.23859C137.141 1.23859 146.724 10.821 146.724 22.6415C146.724 34.462 137.141 44.0444 125.321 44.0444L125.321 42.9743Z" fill="#B48D69"/>
<path fill-rule="evenodd" clip-rule="evenodd" d="M124.445 42.0985C124.213 42.3308 124.082 42.6458 124.082 42.9743L124.082 44.0445C124.082 44.7285 124.637 45.283 125.321 45.283C137.825 45.283 147.962 35.1461 147.962 22.6415C147.962 10.1369 137.825 0 125.321 0C112.816 0 102.679 10.1369 102.679 22.6415C102.679 23.3256 103.234 23.8801 103.918 23.8801H104.988C105.672 23.8801 106.227 23.3256 106.227 22.6415C106.227 12.0961 114.775 3.54733 125.321 3.54733C135.866 3.54733 144.415 12.0961 144.415 22.6415C144.415 33.1869 135.866 41.7357 125.321 41.7357C124.992 41.7357 124.677 41.8662 124.445 42.0985ZM103.953 21.4029C104.595 10.1588 113.916 1.23859 125.321 1.23859C137.141 1.23859 146.724 10.821 146.724 22.6415C146.724 34.0463 137.803 43.3676 126.559 44.0092C126.15 44.0325 125.737 44.0444 125.322 44.0444H125.321L125.321 42.9743H125.322C136.551 42.9735 145.654 33.8705 145.654 22.6415C145.654 11.412 136.55 2.30874 125.321 2.30874C114.091 2.30874 104.988 11.412 104.988 22.6415H103.918C103.918 22.2258 103.93 21.8128 103.953 21.4029Z" fill="#B48D69"/>
<path d="M115.511 13.7236C115.511 14.7087 116.31 15.5072 117.295 15.5072C118.28 15.5072 119.078 14.7087 119.078 13.7236C119.078 12.7386 118.28 11.9401 117.295 11.9401C116.31 11.9401 115.511 12.7386 115.511 13.7236Z" fill="#5C492C"/>
<path d="M134.239 17.2908C134.239 18.2758 135.037 19.0744 136.022 19.0744C137.007 19.0744 137.806 18.2758 137.806 17.2908C137.806 16.3057 137.007 15.5072 136.022 15.5072C135.037 15.5072 134.239 16.3057 134.239 17.2908Z" fill="#5C492C"/>
<path d="M127.626 31.1135C127.626 31.8523 128.225 32.4512 128.964 32.4512C129.703 32.4512 130.302 31.8523 130.302 31.1135C130.302 30.3747 129.703 29.7758 128.964 29.7758C128.225 29.7758 127.626 30.3747 127.626 31.1135Z" fill="#5C492C"/>
<path d="M125.321 8.3729C125.321 8.86542 125.72 9.26469 126.213 9.26469C126.705 9.26469 127.104 8.86542 127.104 8.3729C127.104 7.88038 126.705 7.48112 126.213 7.48112C125.72 7.48112 125.321 7.88038 125.321 8.3729Z" fill="#5C492C"/>
<path d="M112.491 23.8801C112.491 24.3726 112.89 24.7719 113.382 24.7719C113.875 24.7719 114.274 24.3726 114.274 23.8801C114.274 23.3876 113.875 22.9883 113.382 22.9883C112.89 22.9883 112.491 23.3876 112.491 23.8801Z" fill="#5C492C"/>
<path d="M137.806 28.884C137.806 29.3766 138.205 29.7758 138.698 29.7758C139.19 29.7758 139.589 29.3766 139.589 28.884C139.589 28.3915 139.19 27.9922 138.698 27.9922C138.205 27.9922 137.806 28.3915 137.806 28.884Z" fill="#5C492C"/>
<path d="M120.862 34.3396C120.862 34.8321 121.261 35.2314 121.754 35.2314C122.246 35.2314 122.645 34.8321 122.645 34.3396C122.645 33.8471 122.246 33.4478 121.754 33.4478C121.261 33.4478 120.862 33.8471 120.862 34.3396Z" fill="#5C492C"/>
<path d="M122.645 22.6415C122.645 24.1191 123.843 25.3169 125.321 25.3169C126.798 25.3169 127.996 24.1191 127.996 22.6415C127.996 21.1639 126.798 19.9661 125.321 19.9661C123.843 19.9661 122.645 21.1639 122.645 22.6415Z" fill="#5C492C"/>
<path d="M2.99113 22.5514L1.63086 22.5214C1.69364 20.9503 1.65179 15.9967 1.54715 14.2954L2.93881 14.2354C3.03298 15.8766 3.06437 20.8102 2.99113 22.5514Z" fill="#5C492C"/>
<path d="M8.59977 16.3669L7.65805 16.0867C7.82546 15.5263 8.0452 14.1753 8.12891 13.5849L9.46825 14.0052C9.40546 14.7758 8.9346 15.9166 8.59977 16.3669Z" fill="#5C492C"/>
<path d="M13.7327 18.6086C13.7641 17.6879 14.9151 17.0775 15.8464 17.0574C16.9974 16.9874 17.5415 17.5178 17.6461 17.6579C17.7193 17.5178 18.3576 16.9774 19.2575 17.0174C20.2725 17.0474 21.2979 17.788 21.3711 18.8187C21.4339 19.7594 21.3711 21.4406 21.3711 22.4814L20.0213 22.4714C20.0213 21.5807 20.0841 19.6894 20.0423 19.139C20.0004 18.6186 19.5714 18.2983 19.1529 18.2983C18.7552 18.2983 18.1693 18.6286 18.2007 19.2991C18.2007 19.9596 18.1902 21.5107 18.1797 22.3713L16.7672 22.4414C16.7672 21.5507 16.7776 19.7594 16.7567 18.9788C16.7253 18.5385 16.3277 18.2483 15.9196 18.2983C15.5429 18.3184 15.0825 18.5986 15.1139 19.0389C15.1139 19.4992 15.1244 21.6007 15.1453 22.3613L13.806 22.4113C13.7537 21.891 13.7327 20.0096 13.7327 18.6086Z" fill="#5C492C"/>
<path d="M33.4702 14.6957C34.8096 13.9151 37.1848 14.0653 37.9486 15.3962L36.8918 16.2068C36.4837 15.2561 34.9456 15.3362 34.3806 15.7065C33.7318 16.1468 33.1459 17.2176 33.1877 18.6386C33.2191 19.6793 33.7109 20.7601 34.6317 21.0604C35.2595 21.2505 36.6198 21.3005 36.9127 20.2698L38.1579 20.8102C37.5301 22.4914 35.1967 22.5815 33.8888 22.1111C32.6645 21.6808 31.7647 20.3198 31.7123 18.6686C31.7019 17.1275 32.1413 15.4963 33.4702 14.6957Z" fill="#5C492C"/>
<path d="M43.4033 18.3083C42.6185 18.9588 42.8905 20.56 43.4033 21.0804C43.8113 21.4606 44.481 21.4406 44.9205 21.0403C45.5064 20.51 45.4855 18.9788 44.9833 18.3984C44.481 17.878 43.8427 17.9281 43.4033 18.3083ZM42.2732 17.5178C43.4033 16.397 45.4751 16.6872 46.2284 17.6879C47.0446 18.7186 46.9504 20.9403 45.9878 21.8009C44.9623 22.7116 43.2045 22.7116 42.3674 21.911C41.457 21.0904 41.1013 18.7186 42.2732 17.5178Z" fill="#5C492C"/>
<path d="M52.3055 18.3083C51.5207 18.9588 51.7928 20.56 52.3055 21.0804C52.7136 21.4606 53.3832 21.4406 53.8227 21.0403C54.4087 20.51 54.3877 18.9788 53.8855 18.3984C53.3832 17.878 52.745 17.9281 52.3055 18.3083ZM51.1754 17.5178C52.3055 16.397 54.3773 16.6872 55.1306 17.6879C55.9468 18.7186 55.8526 20.9403 54.89 21.8009C53.8646 22.7116 52.1067 22.7116 51.2696 21.911C50.3593 21.0904 50.0035 18.7186 51.1754 17.5178Z" fill="#5C492C"/>
<path d="M61.7623 19.5893C62.2645 20.0696 63.8759 21.1604 64.4933 21.6007L63.6039 22.5414C62.8296 22.0711 61.71 21.1404 61.0717 20.51L61.0612 22.5614L59.6696 22.4213C59.6277 20.0396 59.5545 16.7672 59.6486 14.2354L61.0821 14.2654C61.0403 15.6264 61.0403 17.7279 61.0403 18.4284C61.1345 18.3484 62.7668 16.9774 63.3109 16.437L64.3886 17.2976C63.7085 17.9481 62.1704 19.3191 61.7623 19.5893Z" fill="#5C492C"/>
<path d="M68.4283 17.6879L69.8932 17.5478C69.9455 18.6686 69.9874 21.3506 69.9874 22.4213L68.5329 22.4914C68.4806 21.4406 68.4597 18.8287 68.4283 17.6879ZM68.3865 16.437V14.9559H69.9141V16.437H68.3865Z" fill="#5C492C"/>
<path d="M75.7558 19.179C76.2581 19.3291 78.0369 19.2891 78.288 19.239C78.3508 18.6286 77.9846 17.848 76.8964 17.9181C76.1325 17.9481 75.7977 18.6986 75.7558 19.179ZM79.6169 20.0396C78.581 20.3899 76.5301 20.4399 75.693 20.2298C75.7454 20.59 75.9023 20.9903 76.5092 21.3105C77.2521 21.7008 78.5496 21.3806 79.01 20.6801L79.8262 21.5807C78.9054 22.6615 77.001 22.8717 75.7244 22.2913C74.7409 21.8409 74.4479 21.1104 74.3223 20.3899C74.0921 19.189 74.6048 16.7772 76.9278 16.7172C79.6483 16.6471 79.8785 19.159 79.6169 20.0396Z" fill="#5C492C"/>
<path d="M85.8871 20.3999L84.6419 20.3298C84.7047 19.3791 84.6838 15.086 84.5792 14.3755L85.8139 14.2754C85.9394 15.2161 86.0336 19.3691 85.8871 20.3999ZM84.5478 22.6415V21.1604H86.0755V22.6415H84.5478Z" fill="#5C492C"/>
<path d="M60.2829 34.262C60.2376 33.7586 59.8754 33.2553 58.8793 33.1638C57.4756 33.0265 46.9258 33.3011 43.1677 33.5299L42.6696 28.1307C46.2013 27.9477 58.2454 27.7189 61.596 28.0392C64.1768 28.2679 65.671 28.817 65.988 31.4251C66.3502 33.9874 66.7124 51.7864 66.2143 57.1856L60.3282 57.0026C60.8262 51.9237 60.7357 38.7003 60.2829 34.262ZM53.5817 61.0291C54.3061 61.0291 64.4485 60.8003 67.3463 60.5715L67.8444 65.6504C61.4601 65.9707 47.0616 66.3367 41.6282 65.6504L42.3979 60.7088C43.8468 60.8918 46.5636 60.9833 47.605 60.9833C47.605 59.2903 47.3786 45.2891 47.6955 42.315L53.5817 42.5437C53.4911 46.3415 53.4911 59.2903 53.5817 61.0291ZM74.7267 41.5829L79.662 41.4456L79.8431 46.8905L74.8625 47.0278C74.9983 50.8255 74.9984 63.3169 74.455 66.1995L68.4783 65.8792C69.1122 60.7545 68.4783 33.5299 68.0708 27.9934L74.0475 27.8561C74.5908 33.1638 74.7267 39.7984 74.7267 41.5829Z" fill="#B48D69"/>
<path d="M108.205 62.8593L102.998 66.1079C100.644 62.6763 95.5724 53.1591 95.0743 52.1067C94.7574 52.976 89.7315 62.2187 86.8337 65.9707L81.7625 63.2711C86.6073 56.2705 94.7121 39.1578 95.8441 34.7195C96.1157 33.5756 96.161 33.5299 95.8441 33.4383C94.9838 33.1638 85.2037 33.6214 82.6681 33.8959L81.4003 28.8628C84.7056 28.1764 95.7082 27.8561 99.5116 28.5882C102.364 29.3203 103.089 31.2878 102.726 33.5299C102.409 35.4058 99.9191 42.0404 98.3344 45.4264C100.236 49.1326 106.258 59.5191 108.205 62.6763C108.522 54.0742 108.16 32.752 107.571 28.7255L113.684 27.5816C114.001 29.4576 114.408 37.2818 114.408 40.3932L120.159 40.3017L120.792 45.5636L114.77 45.6551C114.725 48.0344 114.906 54.5317 114.046 66.2452L108.024 65.6504C108.115 65.0556 108.16 64.0947 108.205 62.8593Z" fill="#B48D69"/>
<path d="M26.2992 47.4854L22.3599 51.6034C19.7791 49.7732 14.6626 44.5112 13.8023 43.6876C12.8515 44.6027 7.87087 48.9953 4.56555 51.7406L0.0377197 47.9887C4.38444 44.374 13.3948 36.4125 15.7946 33.8044C16.1115 33.4383 16.2021 33.2096 15.704 33.1638C14.1646 33.0723 4.475 33.2096 2.39219 33.3468L1.93941 28.3137C4.70139 28.0392 16.2926 27.8561 19.5527 28.3137C22.3599 28.6797 24.3069 31.5166 23.1297 33.5756C22.1788 35.2686 19.5527 38.0597 18.0132 39.7069C19.5527 41.0796 23.8541 45.6094 26.2992 47.4854ZM22.0883 41.7659L21.7713 36.8243H30.51C30.51 35.4058 30.012 29.9152 29.695 28.451L35.8076 27.1698C36.849 31.6081 37.1207 50.3222 36.3057 52.6558L30.3742 51.8322C30.5553 50.551 30.6912 44.557 30.6459 41.8574L22.0883 41.7659ZM35.8076 60.7545L36.9396 66.0164C34.1323 66.474 12.9873 66.5198 8.00671 66.2452C5.65223 66.1537 2.84498 66.2452 2.61859 62.4475C2.52803 60.297 2.30164 56.728 2.61859 52.5642L8.73116 52.976C8.73116 55.2181 8.6406 58.8328 8.73116 60.2512C8.77644 61.0748 8.68588 60.9833 10.3159 61.0291C14.8437 61.1663 33.8154 61.0291 35.8076 60.7545Z" fill="#5C492C"/>
</svg>
