<svg width="16" height="16" viewBox="0 0 16 16" fill="none" xmlns="http://www.w3.org/2000/svg">
<path d="M14.3333 12L9.90477 8.00002M6.09525 8.00002L1.6667 12M1.33334 4.66669L6.77662 8.47698C7.2174 8.78553 7.43779 8.9398 7.67752 8.99956C7.88927 9.05234 8.11075 9.05234 8.3225 8.99956C8.56223 8.9398 8.78262 8.78553 9.2234 8.47698L14.6667 4.66669M4.53334 13.3334H11.4667C12.5868 13.3334 13.1468 13.3334 13.5747 13.1154C13.951 12.9236 14.2569 12.6177 14.4487 12.2413C14.6667 11.8135 14.6667 11.2535 14.6667 10.1334V5.86669C14.6667 4.74658 14.6667 4.18653 14.4487 3.75871C14.2569 3.38238 13.951 3.07642 13.5747 2.88467C13.1468 2.66669 12.5868 2.66669 11.4667 2.66669H4.53334C3.41324 2.66669 2.85319 2.66669 2.42536 2.88467C2.04904 3.07642 1.74308 3.38238 1.55133 3.75871C1.33334 4.18653 1.33334 4.74658 1.33334 5.86669V10.1334C1.33334 11.2535 1.33334 11.8135 1.55133 12.2413C1.74308 12.6177 2.04904 12.9236 2.42536 13.1154C2.85319 13.3334 3.41324 13.3334 4.53334 13.3334Z" stroke="#B48D69" stroke-width="2" stroke-linecap="round" stroke-linejoin="round"/>
</svg>
