<?xml version="1.0" encoding="UTF-8" standalone="no"?>
<svg width="72px" height="73px" viewBox="0 0 72 73" version="1.1" xmlns="http://www.w3.org/2000/svg" xmlns:xlink="http://www.w3.org/1999/xlink">
    <!-- Generator: Sketch 3.8.3 (29802) - http://www.bohemiancoding.com/sketch -->
    <title>Gold</title>
    <desc>Created with Sketch.</desc>
    <defs>
        <rect id="path-1" x="0" y="0" width="76" height="8"></rect>
        <path d="M37.7439243,1.64196008 C38.3546498,0.735130567 37.8351198,0 36.5879361,0 L22.9632109,0 C21.7140507,0 20.2107885,0.728488922 19.59559,1.64196008 L0.256075657,30.3580399 C-0.354649847,31.2648694 0.164880232,32 1.41206385,32 L15.0367891,32 C16.2859493,32 17.7892115,31.2715111 18.40441,30.3580399 L37.7439243,1.64196008" id="path-3"></path>
        <mask id="mask-4" maskContentUnits="userSpaceOnUse" maskUnits="objectBoundingBox" x="0" y="0" width="38" height="32" fill="white">
            <use xlink:href="#path-3"></use>
        </mask>
        <path d="M103.743924,1.64196008 C104.35465,0.735130567 103.83512,0 102.587936,0 L88.9632109,0 C87.7140507,0 86.2107885,0.728488922 85.59559,1.64196008 L66.2560757,30.3580399 C65.6453502,31.2648694 66.1648802,32 67.4120639,32 L81.0367891,32 C82.2859493,32 83.7892115,31.2715111 84.40441,30.3580399 L103.743924,1.64196008" id="path-5"></path>
        <mask id="mask-6" maskContentUnits="userSpaceOnUse" maskUnits="objectBoundingBox" x="0" y="0" width="38" height="32" fill="white">
            <use xlink:href="#path-5"></use>
        </mask>
        <rect id="path-7" x="20.0377358" y="29.4444444" width="20" height="8" rx="2"></rect>
        <mask id="mask-8" maskContentUnits="userSpaceOnUse" maskUnits="objectBoundingBox" x="0" y="0" width="20" height="8" fill="white">
            <use xlink:href="#path-7"></use>
        </mask>
        <path d="M0.219512359,1.65307492 C-0.396792818,0.740106851 0.00568766786,0 1.10238466,0 L15.2958022,0 C16.3997042,0 17.7967658,0.743896186 18.4105129,1.65307492 L37.7804876,30.3469251 C38.3967928,31.2598931 37.9943123,32 36.8976153,32 L22.7041978,32 C21.6002958,32 20.2032342,31.2561038 19.5894871,30.3469251 L0.219512359,1.65307492 Z" id="path-9"></path>
        <mask id="mask-10" maskContentUnits="userSpaceOnUse" maskUnits="objectBoundingBox" x="0" y="0" width="38" height="32" fill="white">
            <use xlink:href="#path-9"></use>
        </mask>
        <path d="M59.7439243,1.64196008 C60.3546498,0.735130567 59.8351198,0 58.5879361,0 L44.9632109,0 C43.7140507,0 42.2107885,0.728488922 41.59559,1.64196008 L22.2560757,30.3580399 C21.6453502,31.2648694 22.1648802,32 23.4120639,32 L37.0367891,32 C38.2859493,32 39.7892115,31.2715111 40.40441,30.3580399 L59.7439243,1.64196008" id="path-11"></path>
        <mask id="mask-12" maskContentUnits="userSpaceOnUse" maskUnits="objectBoundingBox" x="0" y="0" width="38" height="32" fill="white">
            <use xlink:href="#path-11"></use>
        </mask>
    </defs>
    <g id="Page-1" stroke="none" stroke-width="1" fill="none" fill-rule="evenodd">
        <g id="Leaderboard" transform="translate(-169.000000, -1044.000000)">
            <g id="Group-2" transform="translate(130.000000, 1008.000000)">
                <g id="1" transform="translate(1.000000, 35.000000)">
                    <g id="Gold" transform="translate(36.000000, 0.000000)">
                        <g id="Back">
                            <mask id="mask-2" fill="white">
                                <use xlink:href="#path-1"></use>
                            </mask>
                            <g id="Mask"></g>
                            <g id="Group-5" mask="url(#mask-2)" stroke="#2E3D49" stroke-width="4" fill="#02B3E4">
                                <g transform="translate(-14.000000, 1.000000)">
                                    <use id="Rectangle-46-Copy-2" mask="url(#mask-4)" xlink:href="#path-3"></use>
                                    <use id="Rectangle-46-Copy-3" mask="url(#mask-6)" transform="translate(85.000000, 16.000000) scale(-1, 1) translate(-85.000000, -16.000000) " xlink:href="#path-5"></use>
                                </g>
                            </g>
                        </g>
                        <g id="Group-4" transform="translate(8.000000, 1.000000)" stroke="#2E3D49">
                            <use id="Rectangle-48" mask="url(#mask-8)" stroke-width="4" fill="#7D97AD" xlink:href="#path-7"></use>
                            <use id="Rectangle-46" mask="url(#mask-10)" stroke-width="4" fill="#91DAEE" xlink:href="#path-9"></use>
                            <path d="M10,2 L29.5,30.5" id="Line" stroke-width="2" stroke-linecap="square"></path>
                            <use id="Rectangle-46-Copy" mask="url(#mask-12)" stroke-width="4" fill="#91DAEE" xlink:href="#path-11"></use>
                            <path d="M30,2 L49.5,30.5" id="Line" stroke-width="2" stroke-linecap="square" transform="translate(40.000000, 16.500000) scale(-1, 1) translate(-40.000000, -16.500000) "></path>
                            <ellipse id="Oval-17" stroke-width="2" fill="#ECC81A" cx="30.0377358" cy="53" rx="19.0358491" ry="19"></ellipse>
                            <ellipse id="Oval-17" stroke-width="2" fill="#ECC81A" cx="30.0377358" cy="53" rx="15.5292453" ry="15.5"></ellipse>
                        </g>
                        <path d="M40.0878906,62 L36.7685547,62 L36.7685547,52.9121094 L36.8007812,51.4189453 L36.8544922,49.7861328 C36.3030571,50.3375679 35.9199229,50.6992179 35.7050781,50.8710938 L33.9003906,52.3212891 L32.2998047,50.3232422 L37.359375,46.2949219 L40.0878906,46.2949219 L40.0878906,62 Z" id="1" fill="#2E3D49"></path>
                    </g>
                </g>
            </g>
        </g>
    </g>
</svg>