<?xml version="1.0" encoding="UTF-8" standalone="no"?>
<svg width="72px" height="73px" viewBox="0 0 72 73" version="1.1" xmlns="http://www.w3.org/2000/svg" xmlns:xlink="http://www.w3.org/1999/xlink">
    <!-- Generator: Sketch 3.8.3 (29802) - http://www.bohemiancoding.com/sketch -->
    <title>Bronze</title>
    <desc>Created with Sketch.</desc>
    <defs>
        <rect id="path-1" x="0" y="0" width="76" height="8"></rect>
        <path d="M37.7439243,1.64196008 C38.3546498,0.735130567 37.8351198,0 36.5879361,0 L22.9632109,0 C21.7140507,0 20.2107885,0.728488922 19.59559,1.64196008 L0.256075657,30.3580399 C-0.354649847,31.2648694 0.164880232,32 1.41206385,32 L15.0367891,32 C16.2859493,32 17.7892115,31.2715111 18.40441,30.3580399 L37.7439243,1.64196008" id="path-3"></path>
        <mask id="mask-4" maskContentUnits="userSpaceOnUse" maskUnits="objectBoundingBox" x="0" y="0" width="38" height="32" fill="white">
            <use xlink:href="#path-3"></use>
        </mask>
        <path d="M103.743924,1.64196008 C104.35465,0.735130567 103.83512,0 102.587936,0 L88.9632109,0 C87.7140507,0 86.2107885,0.728488922 85.59559,1.64196008 L66.2560757,30.3580399 C65.6453502,31.2648694 66.1648802,32 67.4120639,32 L81.0367891,32 C82.2859493,32 83.7892115,31.2715111 84.40441,30.3580399 L103.743924,1.64196008" id="path-5"></path>
        <mask id="mask-6" maskContentUnits="userSpaceOnUse" maskUnits="objectBoundingBox" x="0" y="0" width="38" height="32" fill="white">
            <use xlink:href="#path-5"></use>
        </mask>
        <rect id="path-7" x="20.0377358" y="29.4444444" width="20" height="8" rx="2"></rect>
        <mask id="mask-8" maskContentUnits="userSpaceOnUse" maskUnits="objectBoundingBox" x="0" y="0" width="20" height="8" fill="white">
            <use xlink:href="#path-7"></use>
        </mask>
        <path d="M0.219512359,1.65307492 C-0.396792818,0.740106851 0.00568766786,0 1.10238466,0 L15.2958022,0 C16.3997042,0 17.7967658,0.743896186 18.4105129,1.65307492 L37.7804876,30.3469251 C38.3967928,31.2598931 37.9943123,32 36.8976153,32 L22.7041978,32 C21.6002958,32 20.2032342,31.2561038 19.5894871,30.3469251 L0.219512359,1.65307492 Z" id="path-9"></path>
        <mask id="mask-10" maskContentUnits="userSpaceOnUse" maskUnits="objectBoundingBox" x="0" y="0" width="38" height="32" fill="white">
            <use xlink:href="#path-9"></use>
        </mask>
        <path d="M59.7439243,1.64196008 C60.3546498,0.735130567 59.8351198,0 58.5879361,0 L44.9632109,0 C43.7140507,0 42.2107885,0.728488922 41.59559,1.64196008 L22.2560757,30.3580399 C21.6453502,31.2648694 22.1648802,32 23.4120639,32 L37.0367891,32 C38.2859493,32 39.7892115,31.2715111 40.40441,30.3580399 L59.7439243,1.64196008" id="path-11"></path>
        <mask id="mask-12" maskContentUnits="userSpaceOnUse" maskUnits="objectBoundingBox" x="0" y="0" width="38" height="32" fill="white">
            <use xlink:href="#path-11"></use>
        </mask>
    </defs>
    <g id="Page-1" stroke="none" stroke-width="1" fill="none" fill-rule="evenodd">
        <g id="Leaderboard" transform="translate(-169.000000, -1264.000000)">
            <g id="Group-2" transform="translate(130.000000, 1008.000000)">
                <g id="3" transform="translate(1.000000, 255.000000)">
                    <g id="Bronze" transform="translate(36.000000, 0.000000)">
                        <g id="Group-9">
                            <mask id="mask-2" fill="white">
                                <use xlink:href="#path-1"></use>
                            </mask>
                            <g id="Mask"></g>
                            <g mask="url(#mask-2)" stroke="#2E3D49" stroke-width="4" fill="#02B3E4">
                                <g transform="translate(-14.000000, 1.000000)">
                                    <use id="Rectangle-46-Copy-2" mask="url(#mask-4)" xlink:href="#path-3"></use>
                                    <use id="Rectangle-46-Copy-3" mask="url(#mask-6)" transform="translate(85.000000, 16.000000) scale(-1, 1) translate(-85.000000, -16.000000) " xlink:href="#path-5"></use>
                                </g>
                            </g>
                        </g>
                        <g id="Group-4-Copy-2" transform="translate(8.000000, 1.000000)" stroke="#2E3D49">
                            <use id="Rectangle-48" mask="url(#mask-8)" stroke-width="4" fill="#7D97AD" xlink:href="#path-7"></use>
                            <use id="Rectangle-46" mask="url(#mask-10)" stroke-width="4" fill="#91DAEE" xlink:href="#path-9"></use>
                            <path d="M10,2 L29.5,30.5" id="Line" stroke-width="2" stroke-linecap="square"></path>
                            <use id="Rectangle-46-Copy" mask="url(#mask-12)" stroke-width="4" fill="#91DAEE" xlink:href="#path-11"></use>
                            <path d="M30,2 L49.5,30.5" id="Line" stroke-width="2" stroke-linecap="square" transform="translate(40.000000, 16.500000) scale(-1, 1) translate(-40.000000, -16.500000) "></path>
                            <ellipse id="Oval-17" stroke-width="2" fill="#d0c0b2" cx="30.0377358" cy="53" rx="19.0358491" ry="19"></ellipse>
                            <ellipse id="Oval-17" stroke-width="2" fill="#d0c0b2" cx="30.0377358" cy="53" rx="15.5292453" ry="15.5"></ellipse>
                        </g>
                        <path d="M43.2470703,49.8076172 C43.2470703,50.7887419 42.9498728,51.6230434 42.3554688,52.3105469 C41.7610647,52.9980503 40.9267632,53.4707018 39.8525391,53.7285156 L39.8525391,53.7929688 C41.1201235,53.9505216 42.0797493,54.3354462 42.7314453,54.9477539 C43.3831413,55.5600617 43.7089844,56.3854115 43.7089844,57.4238281 C43.7089844,58.9349034 43.1611383,60.1111612 42.0654297,60.9526367 C40.9697211,61.7941123 39.4049581,62.2148438 37.3710938,62.2148438 C35.6666581,62.2148438 34.1556055,61.931969 32.8378906,61.3662109 L32.8378906,58.5410156 C33.4466176,58.8489599 34.1162073,59.0996084 34.8466797,59.2929688 C35.5771521,59.4863291 36.3004521,59.5830078 37.0166016,59.5830078 C38.1123102,59.5830078 38.9215469,59.3968118 39.4443359,59.0244141 C39.967125,58.6520164 40.2285156,58.0540406 40.2285156,57.2304688 C40.2285156,56.4928349 39.9277374,55.9700536 39.3261719,55.6621094 C38.7246064,55.3541651 37.7649805,55.2001953 36.4472656,55.2001953 L35.2548828,55.2001953 L35.2548828,52.6542969 L36.46875,52.6542969 C37.686204,52.6542969 38.5760063,52.494956 39.1381836,52.1762695 C39.7003609,51.857583 39.9814453,51.3115273 39.9814453,50.5380859 C39.9814453,49.3492779 39.2366611,48.7548828 37.7470703,48.7548828 C37.2314427,48.7548828 36.7068712,48.8408195 36.1733398,49.0126953 C35.6398085,49.1845712 35.0472038,49.4817687 34.3955078,49.9042969 L32.859375,47.6162109 C34.2916738,46.5849558 35.9996646,46.0693359 37.9833984,46.0693359 C39.6090576,46.0693359 40.8927362,46.3987597 41.8344727,47.0576172 C42.7762091,47.7164746 43.2470703,48.6331321 43.2470703,49.8076172 L43.2470703,49.8076172 Z" id="3" fill="#2E3D49"></path>
                    </g>
                </g>
            </g>
        </g>
    </g>
</svg>